<?xml version="1.0" encoding="UTF-8" standalone="no"?>
<!-- Created with Inkscape (http://www.inkscape.org/) -->

<svg
   width="129.05182mm"
   height="133.03238mm"
   viewBox="0 0 129.05182 133.03238"
   version="1.1"
   id="svg1"
   xmlns="http://www.w3.org/2000/svg"
   xmlns:svg="http://www.w3.org/2000/svg">
  <defs
     id="defs1" />
  <g
     id="layer1"
     transform="translate(179.37226,11.89137)">
    <rect
       style="fill:#000000;stroke:#1a1a1a;stroke-width:0.0264583"
       id="rect1"
       width="129.02536"
       height="133.00592"
       x="-179.35902"
       y="-11.878141" />
    <g
       id="g14"
       style="fill:#ffffff"
       transform="matrix(3.5649122,0,0,3.5649122,-182.57968,-13.108513)">
      <defs
         id="defs12" />
      <g
         class="fills"
         id="g13"
         style="fill:#ffffff">
        <path
           d="m 18.999878,20.500061 -4.999756,1.500061 5,-19.000122 v 0 14.499939 l 4.999756,-1.500061 -5,19.000122 v 0 -14.499939 m 0,-3.000061 2.44e-4,-6.1e-5 M 30.119751,7.5 C 27.240112,4.7147827 23.318726,3.000061 19.000122,3 14.681274,3 10.76001,4.7147827 7.880249,7.5 H 10.5 v 23 H 7.880249 c 2.879639,2.785217 6.801025,4.499939 11.119629,4.5 4.318848,0 8.240112,-1.714783 11.119873,-4.5 H 27.5 v -23 h 2.619751 M 6.1279297,28.5 H 8.5 V 9.5 H 6.1279297 C 4.1625977,12.157532 3,15.444092 3,19 c 0,3.555908 1.1625977,6.842468 3.1279297,9.5 M 31.87207,9.5 H 29.5 v 19 h 2.37207 C 33.837402,25.842468 35,22.555908 35,19 35,15.444092 33.837402,12.157532 31.87207,9.5 M 22.265381,3.3308716 C 21.242798,3.1205444 20.184814,3.007019 19.101562,3.0003052 19.067749,3.0001221 19.033936,3 19.000122,3"
           fill="url(#fill-0-render-2)"
           id="path12"
           style="fill:#ffffff" />
      </g>
    </g>
  </g>
</svg>
